<svg xmlns="http://www.w3.org/2000/svg" xmlns:xlink="http://www.w3.org/1999/xlink" width="115" height="90" viewBox="0 0 115 90">
  <defs>
    <clipPath id="clip-path">
      <rect id="Rectangle_759" data-name="Rectangle 759" width="115" height="90" fill="none"/>
    </clipPath>
  </defs>
  <g id="Group_1055" data-name="Group 1055" clip-path="url(#clip-path)">
    <path id="Path_5046" data-name="Path 5046" d="M32.882,90C9.821,89.734,0,63.113,0,45.79S9.821,0,33.046,0H81.955C105.181,0,115,28.467,115,45.79S105.181,89.734,82.119,90Z" transform="translate(-0.001)" fill="#fff" fill-rule="evenodd"/>
    <path id="Path_5047" data-name="Path 5047" d="M31.3,291.312H132.78q-.168.507-.345,1.016c-3.229,8.351-7.778,15.46-15.8,19.737l-3.062,1.227-3.327.788-3.675.307H57.508l-5.373-.643-3.19-1.012L46,311.3l-2.713-1.826A39.148,39.148,0,0,1,31.3,291.312" transform="translate(-24.539 -228.116)" fill="#e50019" fill-rule="evenodd"/>
    <path id="Path_5048" data-name="Path 5048" d="M122.913,72.93H19.179c-.347-1.281-.657-2.576-.936-3.9-.4-2.234-.692-4.418-.881-6.679-.08-1.552-.108-3.07-.081-4.623a69,69,0,0,1,.967-8.434c.5-2.449,1.1-4.807,1.817-7.2a73.068,73.068,0,0,1,2.765-7.047c.84-1.682,1.717-3.278,2.691-4.886,1.013-1.515,2.047-2.916,3.2-4.324l2.408-2.482a36.668,36.668,0,0,1,4.008-3.016l2.944-1.489,3.186-1.036,3.465-.545,50.69-.074,3.694.282,3.32.8,3.061,1.267,2.833,1.7,2.619,2.111a45.83,45.83,0,0,1,3.531,3.85c1.1,1.482,2.08,2.955,3.035,4.532.913,1.659,1.734,3.305,2.516,5.03.726,1.766,1.378,3.517,1.985,5.327a76.042,76.042,0,0,1,2.124,8.965c.322,2.233.545,4.415.66,6.669.027,1.554,0,3.072-.081,4.623a67.748,67.748,0,0,1-1.245,8.406c-.178.733-.365,1.457-.562,2.175" transform="translate(-13.541 -13.463)" fill="#003e92" fill-rule="evenodd"/>
    <path id="Path_5049" data-name="Path 5049" d="M117.158,27.91a2.221,2.221,0,0,1-1.773.529c-1.059.092-2.113-.1-3.224-.042-.782.049-1.226-.048-1.693.387a4.384,4.384,0,0,1,.7-2.571,2.293,2.293,0,0,1,1.738-.667c.786-.025,4.6.424,4.927-.528a4.709,4.709,0,0,1-.675,2.893m5.628,12.229c0-6.531,3.681-10.585,10.258-10.585s10.205,4.073,10.205,10.589S139.622,50.7,133.045,50.7s-10.258-4.016-10.258-10.556Zm7.475.141c0,3.186-.107,5.364.369,6.526a2.547,2.547,0,0,0,2.522,1.746,2.517,2.517,0,0,0,2.486-1.724c.473-1.151.3-3.339.3-6.547s.173-5.4-.3-6.553a2.671,2.671,0,0,0-5.013.017c-.477,1.172-.369,3.356-.369,6.536M107.73,43.131h4.855L110.152,35.2ZM101.7,49.975l6.75-19.683,7.009-.066,7.181,19.749-7.956.011-1.106-3.693h-6.782l-1.152,3.682Zm-17.3-1.1.039-3.863A10.372,10.372,0,0,0,91.129,47.2c3.143-.169,4.06-3.235,1.907-4.023-3-1.1-5.768-1.11-7.851-4.084a5.271,5.271,0,0,1,.539-6.55c3.381-3.751,8.92-3.212,13.285-1.792V34.3a8.4,8.4,0,0,0-4.424-1.064c-1.857,0-4.824,1.584-2.643,3.429,2.2,1.858,5.014,1.392,7.288,3.687,2,2.019,1.182,7.332-1.4,8.956-3.778,2.374-9.9,1.3-13.428-.437M99.674,66.222l0,7.469H93.061V53.942h9.353c2.693,0,4.877.148,6.411,1.225,3.988,2.8,2.429,8.759-2.188,9.769l4.7,8.755h-7.646Zm0-2.818,1.612.041c3.786-.028,3.852-6.453-.252-6.441l-1.361-.023ZM136.8,58.037V53.942h19.138L147.7,70.51h7.665v3.181H136.21l8.463-15.655Zm-17.331,8.8h4.855L121.893,58.9Zm-6.032,6.844L120.188,54l7.008-.065,7.181,19.749-7.957.011L125.315,70h-6.781l-1.152,3.682ZM78.465,56.662v5.419h1.081c4.517,0,4.379-5.419.3-5.419Zm0,9.263v5.027h1.2c4.952,0,4.845-5.027.337-5.027Zm-6.4,7.767V53.942h9.394c3.233,0,6.666.422,7.052,3.993.127,2.461-.284,3.823-2.652,4.859a5.25,5.25,0,0,1,2.76,2.051c1.464,1.827.963,6.217-1.059,7.545a9.205,9.205,0,0,1-5.341,1.3Z" transform="translate(-56.501 -19.59)" fill="#fff" fill-rule="evenodd"/>
    <path id="Path_5050" data-name="Path 5050" d="M482.864,6.348h.614a3.223,3.223,0,0,0,.746-.05.443.443,0,0,0,.233-.175.542.542,0,0,0,.084-.311.5.5,0,0,0-.11-.337.513.513,0,0,0-.313-.162c-.067-.009-.27-.014-.606-.014h-.648Zm-.83,2.385V4.6h1.748a3.009,3.009,0,0,1,.958.111.953.953,0,0,1,.478.4,1.2,1.2,0,0,1,.18.651,1.11,1.11,0,0,1-.271.769,1.306,1.306,0,0,1-.814.382,1.933,1.933,0,0,1,.445.346,4.714,4.714,0,0,1,.473.671l.5.805h-.994l-.6-.9a5.747,5.747,0,0,0-.437-.607.628.628,0,0,0-.249-.172,1.373,1.373,0,0,0-.419-.047h-.168V8.732Zm1.638-5.738a3.673,3.673,0,1,1-3.657,3.673,3.671,3.671,0,0,1,3.657-3.673m0,.464a3.209,3.209,0,1,1-3.194,3.209,3.208,3.208,0,0,1,3.194-3.209" transform="translate(-376.36 -2.344)" fill="#003e92" fill-rule="evenodd"/>
    <path id="Path_5051" data-name="Path 5051" d="M168.093,311.4H170.2a1.3,1.3,0,0,0-.29-.86.958.958,0,0,0-.749-.31.975.975,0,0,0-.755.3,1.358,1.358,0,0,0-.314.866m3.65,1.732a1.913,1.913,0,0,1-.712,1.484,2.97,2.97,0,0,1-1.861.509,2.628,2.628,0,0,1-2.027-.765,3.1,3.1,0,0,1-.71-2.187,3.378,3.378,0,0,1,.738-2.33,2.659,2.659,0,0,1,2.092-.827,2.269,2.269,0,0,1,1.923.844,4.113,4.113,0,0,1,.646,2.523v.2h-3.747a1.551,1.551,0,0,0,.326.983,1.006,1.006,0,0,0,.809.361.923.923,0,0,0,.631-.212.835.835,0,0,0,.273-.578Zm-6.842-6.475v7.011c0,.2.005.408.017.628s.028.447.05.688H163.3c-.017-.151-.028-.3-.037-.451s-.013-.3-.013-.453V313.9a2.545,2.545,0,0,1-.818.919,1.91,1.91,0,0,1-1.062.31,1.873,1.873,0,0,1-1.615-.815,3.883,3.883,0,0,1-.579-2.275,3.64,3.64,0,0,1,.6-2.2,1.911,1.911,0,0,1,1.623-.81,2.128,2.128,0,0,1,1.018.245,2.6,2.6,0,0,1,.837.736v-3.351Zm-2.85,3.539a.98.98,0,0,0-.854.468,2.212,2.212,0,0,0-.315,1.255,2.548,2.548,0,0,0,.312,1.378,1.05,1.05,0,0,0,1.759.017,2.331,2.331,0,0,0,.314-1.31,2.409,2.409,0,0,0-.311-1.347,1.025,1.025,0,0,0-.9-.46m-6.019,3.931a1.771,1.771,0,0,1-.787.742,2.726,2.726,0,0,1-1.227.256,1.69,1.69,0,0,1-1.268-.461,1.787,1.787,0,0,1-.448-1.3,2.454,2.454,0,0,1,.172-.945,1.691,1.691,0,0,1,.5-.682,1.622,1.622,0,0,1,.73-.314,8.5,8.5,0,0,1,1.483-.092h.8c0-.024,0-.052,0-.087s0-.061,0-.076a1.1,1.1,0,0,0-.209-.721.742.742,0,0,0-.6-.249,1.108,1.108,0,0,0-.669.166.752.752,0,0,0-.261.538h-1.678a1.8,1.8,0,0,1,.722-1.407,3.3,3.3,0,0,1,1.91-.455,2.568,2.568,0,0,1,1.8.542,2.2,2.2,0,0,1,.579,1.682v2.958a4.239,4.239,0,0,0,.018.424,1.878,1.878,0,0,0,.067.339h-1.539a1.8,1.8,0,0,1-.081-.345,2.975,2.975,0,0,1-.025-.407Zm-.041-1.734h-.131a3.779,3.779,0,0,0-1.431.187.652.652,0,0,0-.4.638.572.572,0,0,0,.207.482.987.987,0,0,0,.619.162,1.052,1.052,0,0,0,.845-.345,1.488,1.488,0,0,0,.295-.995Zm-5.125-5.736v7.011c0,.2.005.408.018.628s.027.447.05.688h-1.669c-.017-.151-.028-.3-.037-.451s-.013-.3-.013-.453V313.9a2.547,2.547,0,0,1-.818.919,1.911,1.911,0,0,1-1.062.31,1.872,1.872,0,0,1-1.614-.815,3.883,3.883,0,0,1-.58-2.275,3.641,3.641,0,0,1,.6-2.2,1.91,1.91,0,0,1,1.623-.81,2.129,2.129,0,0,1,1.018.245,2.608,2.608,0,0,1,.837.736v-3.351Zm-2.85,3.539a.98.98,0,0,0-.854.468,2.209,2.209,0,0,0-.316,1.255,2.542,2.542,0,0,0,.312,1.378,1.05,1.05,0,0,0,1.759.017,2.338,2.338,0,0,0,.314-1.31,2.416,2.416,0,0,0-.311-1.347,1.026,1.026,0,0,0-.9-.46m-6.095-1.016h1.653v5.805h-1.653Zm-.067-2.524h1.773v1.633h-1.773Zm-3.332,0h1.652v8.328h-1.652Zm-3.324,7.47a1.772,1.772,0,0,1-.786.742,2.726,2.726,0,0,1-1.227.256,1.689,1.689,0,0,1-1.268-.461,1.788,1.788,0,0,1-.448-1.3,2.467,2.467,0,0,1,.172-.945,1.689,1.689,0,0,1,.5-.682,1.612,1.612,0,0,1,.729-.314,8.511,8.511,0,0,1,1.483-.092h.8c0-.024,0-.052,0-.087s0-.061,0-.076a1.1,1.1,0,0,0-.208-.721.742.742,0,0,0-.6-.249,1.106,1.106,0,0,0-.669.166.752.752,0,0,0-.262.538h-1.677a1.8,1.8,0,0,1,.721-1.407,3.3,3.3,0,0,1,1.91-.455,2.571,2.571,0,0,1,1.8.542,2.2,2.2,0,0,1,.579,1.682v2.958a4.109,4.109,0,0,0,.018.424,1.933,1.933,0,0,0,.066.339H135.3a1.8,1.8,0,0,1-.08-.345,3.005,3.005,0,0,1-.026-.407Zm-.041-1.734h-.13a3.779,3.779,0,0,0-1.431.187.652.652,0,0,0-.4.638.57.57,0,0,0,.207.482.987.987,0,0,0,.618.162,1.054,1.054,0,0,0,.845-.345,1.491,1.491,0,0,0,.294-.995Zm-6.761,2.592c-.013-.158-.024-.314-.032-.469s-.01-.309-.01-.458a2.721,2.721,0,0,1-.851.8,2,2,0,0,1-1.011.272,1.632,1.632,0,0,1-1.392-.648,3.044,3.044,0,0,1-.484-1.854V309.18h1.661v3.365a1.633,1.633,0,0,0,.226.961.81.81,0,0,0,.7.308.968.968,0,0,0,.859-.43,2.272,2.272,0,0,0,.289-1.27V309.18h1.652v4.427q0,.387.041,1.243c.005.064.008.108.008.135Zm-5.5,2.2h-1.652v-3.026a2.628,2.628,0,0,1-.835.736,2.122,2.122,0,0,1-1.019.245,1.911,1.911,0,0,1-1.624-.809,3.646,3.646,0,0,1-.6-2.2,3.884,3.884,0,0,1,.583-2.278,1.968,1.968,0,0,1,2.669-.5,2.654,2.654,0,0,1,.822.919v-.179c0-.151,0-.3.013-.453s.02-.3.037-.451h1.669c-.023.241-.038.47-.05.688s-.018.428-.018.628Zm-4.02-4.936a2.211,2.211,0,0,0,.316,1.255.98.98,0,0,0,.854.468,1.024,1.024,0,0,0,.9-.466,2.448,2.448,0,0,0,.312-1.353,2.312,2.312,0,0,0-.314-1.3,1.052,1.052,0,0,0-1.76.019,2.555,2.555,0,0,0-.311,1.378m55.8-11.252h2.106a1.29,1.29,0,0,0-.29-.86.957.957,0,0,0-.749-.31.976.976,0,0,0-.755.3,1.355,1.355,0,0,0-.313.865m3.65,1.732a1.914,1.914,0,0,1-.712,1.484,2.973,2.973,0,0,1-1.861.509,2.627,2.627,0,0,1-2.026-.765,3.1,3.1,0,0,1-.71-2.187,3.38,3.38,0,0,1,.737-2.33,2.659,2.659,0,0,1,2.092-.827,2.268,2.268,0,0,1,1.923.844,4.113,4.113,0,0,1,.646,2.523v.2h-3.747a1.565,1.565,0,0,0,.326.983,1.008,1.008,0,0,0,.81.361.92.92,0,0,0,.631-.212.839.839,0,0,0,.273-.579Zm-6.842-6.475v7.011c0,.2.005.409.017.628s.027.447.05.689H169.88q-.025-.226-.037-.451c-.008-.15-.013-.3-.013-.453v-.185a2.547,2.547,0,0,1-.818.919,1.91,1.91,0,0,1-1.062.31,1.872,1.872,0,0,1-1.615-.815,3.887,3.887,0,0,1-.58-2.274,3.639,3.639,0,0,1,.6-2.2,1.909,1.909,0,0,1,1.623-.809,2.127,2.127,0,0,1,1.017.245,2.6,2.6,0,0,1,.837.736v-3.351Zm-2.85,3.538a.98.98,0,0,0-.854.468,2.209,2.209,0,0,0-.316,1.255,2.553,2.553,0,0,0,.311,1.378,1.05,1.05,0,0,0,1.76.017,2.337,2.337,0,0,0,.314-1.31,2.412,2.412,0,0,0-.311-1.347,1.026,1.026,0,0,0-.9-.461m-12.317,2.949h1.645a.768.768,0,0,0,.209.576.809.809,0,0,0,.589.2.855.855,0,0,0,.553-.158.542.542,0,0,0,.2-.445q0-.462-.9-.616c-.106-.018-.188-.033-.244-.044a2.827,2.827,0,0,1-1.482-.578,1.649,1.649,0,0,1-.383-1.2,1.689,1.689,0,0,1,.56-1.368,2.444,2.444,0,0,1,1.617-.472,2.914,2.914,0,0,1,1.823.457,1.749,1.749,0,0,1,.569,1.451h-1.619v-.023a.738.738,0,0,0-.175-.541.728.728,0,0,0-.539-.176.785.785,0,0,0-.477.123.413.413,0,0,0-.166.351c0,.276.3.477.9.605l.3.068a3.207,3.207,0,0,1,1.5.613,1.509,1.509,0,0,1,.354,1.1,1.927,1.927,0,0,1-.6,1.555,2.8,2.8,0,0,1-1.841.5,2.771,2.771,0,0,1-1.782-.467,2,2,0,0,1-.61-1.514m-4.177.682a.993.993,0,0,0,.87-.484,2.356,2.356,0,0,0,.32-1.318,2.426,2.426,0,0,0-.321-1.337,1.045,1.045,0,0,0-1.762-.017,3.063,3.063,0,0,0,0,2.69,1.012,1.012,0,0,0,.9.467m-.084,1.3a2.774,2.774,0,0,1-2.126-.784,3.209,3.209,0,0,1-.733-2.27,3.14,3.14,0,0,1,.753-2.259,3.407,3.407,0,0,1,4.357.006,3.18,3.18,0,0,1,.752,2.276,3.094,3.094,0,0,1-.755,2.268,3.029,3.029,0,0,1-2.248.763m-5.4-7.982v2.037h1.358v1.378h-1.358v2.264a.981.981,0,0,0,.149.625.677.677,0,0,0,.528.172c.075,0,.164,0,.264-.012s.24-.023.416-.045v1.411a4.139,4.139,0,0,1-.528.112,3.533,3.533,0,0,1-.54.041,2.008,2.008,0,0,1-1.439-.445,1.869,1.869,0,0,1-.461-1.4v-2.727h-.991v-1.378h.991v-1.235l.878-.372a3,3,0,0,0,.347-.176,4.47,4.47,0,0,0,.385-.254m-5.485,7.842c-.013-.158-.024-.314-.031-.469s-.011-.308-.011-.458a2.729,2.729,0,0,1-.851.8,2,2,0,0,1-1.011.272,1.635,1.635,0,0,1-1.393-.648,3.047,3.047,0,0,1-.483-1.854v-3.444h1.66v3.365a1.638,1.638,0,0,0,.225.961.811.811,0,0,0,.7.308.968.968,0,0,0,.859-.43,2.277,2.277,0,0,0,.289-1.27v-2.935h1.652V303.2q0,.387.042,1.243c.005.063.008.108.008.135Zm-5.5-8.328v7.011c0,.2.006.409.017.628s.027.447.05.689h-1.669c-.017-.151-.029-.3-.037-.451s-.013-.3-.013-.453v-.185a2.548,2.548,0,0,1-.818.919,1.91,1.91,0,0,1-1.062.31,1.873,1.873,0,0,1-1.615-.815,3.885,3.885,0,0,1-.58-2.274,3.638,3.638,0,0,1,.6-2.2,1.909,1.909,0,0,1,1.623-.809,2.129,2.129,0,0,1,1.018.245,2.6,2.6,0,0,1,.837.736v-3.351Zm-2.85,3.538a.979.979,0,0,0-.853.468,2.21,2.21,0,0,0-.315,1.255,2.553,2.553,0,0,0,.311,1.378,1.05,1.05,0,0,0,1.76.017,2.333,2.333,0,0,0,.314-1.31,2.412,2.412,0,0,0-.311-1.347,1.027,1.027,0,0,0-.9-.461m-7.129,3.631a.994.994,0,0,0,.87-.484,2.353,2.353,0,0,0,.32-1.318,2.42,2.42,0,0,0-.322-1.337,1.045,1.045,0,0,0-1.762-.017,3.068,3.068,0,0,0,0,2.69,1.012,1.012,0,0,0,.9.467m-.084,1.3a2.774,2.774,0,0,1-2.126-.784,3.2,3.2,0,0,1-.733-2.27,3.14,3.14,0,0,1,.752-2.259,3.407,3.407,0,0,1,4.357.006,3.18,3.18,0,0,1,.753,2.276,3.094,3.094,0,0,1-.755,2.268,3.027,3.027,0,0,1-2.247.763m-4-4.1c-.087-.017-.172-.033-.257-.043a2.2,2.2,0,0,0-.261-.013,1.1,1.1,0,0,0-.981.509,2.676,2.676,0,0,0-.339,1.484v2.022h-1.652V300.14c0-.3,0-.553-.013-.765s-.02-.412-.038-.6h1.619c.01.131.019.27.024.413s.008.3.008.468v.266a2.025,2.025,0,0,1,.677-.915,1.765,1.765,0,0,1,1.039-.3h.172Zm-7.966,2.943a1,1,0,0,0,.861-.468,2.188,2.188,0,0,0,.321-1.255,2.518,2.518,0,0,0-.317-1.374,1.052,1.052,0,0,0-1.764-.021,2.34,2.34,0,0,0-.315,1.31,2.417,2.417,0,0,0,.311,1.347,1.028,1.028,0,0,0,.9.461m-2.85,3.213V300.09c0-.2-.005-.408-.017-.628s-.027-.447-.051-.688h1.669c.018.151.029.3.038.451s.013.3.013.453v.179a2.64,2.64,0,0,1,.826-.919,1.9,1.9,0,0,1,1.061-.316,1.86,1.86,0,0,1,1.609.819,3.9,3.9,0,0,1,.578,2.28,3.641,3.641,0,0,1-.6,2.2,1.909,1.909,0,0,1-1.623.81,2.137,2.137,0,0,1-1.018-.245,2.607,2.607,0,0,1-.837-.736v3.026Z" transform="translate(-86.814 -231.984)" fill="#fff" fill-rule="evenodd"/>
  </g>
</svg>
